<svg version="1.1" xmlns="http://www.w3.org/2000/svg" xmlns:xlink="http://www.w3.org/1999/xlink" x="0px" y="0px" width="100%" height="100%" viewBox="0 0 640 640" enable-background="new 0 0 640 640" xml:space="preserve" fit="" preserveAspectRatio="xMidYMid meet" focusable="false">
<path d="M493.5,227.4c-75.9-35.1-185.1-57.4-287.8-49.1c5.1-34,17.9-57.7,38.7-62.7c28.7-6.9,60,12,89.8,46.3
	c19.5,2.5,42.7,7,58.9,10.7C338.7,70.3,265.7,13,210.2,34.2C168,50.2,146.4,108.4,149,186.5C94,198.2,51.1,219,23.6,248.9
	c-1.4,1.6-4.5,5.7-3.4,7.6c0.9,1.5,3.6-0.2,4.9-1c31.8-22.3,72.6-34.3,125.7-41.9c7.6,83.3,42.8,189,101.4,273.8
	c-32,12.6-58.9,13.4-73.6-2.2c-20.3-21.4-19.6-58-4.8-101c-7.6-18.2-15.3-40.5-20.1-56.3C92.1,426.2,78.9,518.1,125,555.6
	c35.1,28.5,96.2,18.2,162.5-23.1c37.6,41.8,77.1,68.5,116.7,77.3c2.1,0.4,7.2,1.1,8.3-0.8c0.9-1.5-2-3.1-3.3-3.7
	c-35.2-16.4-66-45.7-99.1-87.9c68.4-48.2,142.3-131.6,186.4-224.7c26.9,21.5,41,44.3,34.9,64.9c-8.4,28.3-40.4,46-85.1,54.6
	c-12,15.7-27.4,33.5-38.7,45.6c115.8,4,202-30.5,211.4-89.1c7.2-44.6-32.4-92.4-101.3-129.2c17.4-53.5,20.8-101,8.6-139.7
	c-0.7-2-2.6-6.8-4.9-6.8c-1.7,0-1.7,3.2-1.6,4.7C523.4,136.3,513.5,177.7,493.5,227.4z M280.2,474.1c-49-78.6-77.2-171.2-77.1-264.8
	l0,0C295.7,206.2,390,228,471,275l0,0C427.4,356.7,361.4,427.5,280.2,474.1L280.2,474.1z"></path>
</svg>